<svg width="28" height="28" viewBox="0 0 28 28" fill="none" xmlns="http://www.w3.org/2000/svg">
<path d="M12.7025 3.44093C13.5166 2.80023 14.6941 2.84639 15.456 3.57902L23.156 10.9823L23.3023 11.1368C23.6226 11.5147 23.7998 11.9968 23.8 12.4958V21.6997C23.7996 22.7868 22.9734 23.6813 21.9146 23.7888L21.7 23.7997H16.8C16.4136 23.7997 16.1003 23.486 16.1 23.0997V16.7997C16.0997 16.4129 15.786 16.0997 15.4 16.0997H12.6C12.2139 16.0997 11.9002 16.4129 11.9 16.7997V23.0997C11.8996 23.486 11.5863 23.7997 11.2 23.7997H6.29995C5.14036 23.7997 4.20029 22.8592 4.19995 21.6997V12.4958C4.20016 11.9257 4.43217 11.3785 4.8439 10.9823L12.5439 3.57902L12.7025 3.44093ZM14.4853 4.588C14.2482 4.36008 13.89 4.33095 13.6226 4.50187L13.5146 4.588L5.8146 11.9913C5.67801 12.1228 5.60004 12.305 5.59995 12.4958V21.6997C5.60029 22.086 5.91356 22.3997 6.29995 22.3997H10.5V16.7997C10.5004 15.6407 11.4401 14.6997 12.6 14.6997H15.4C16.5598 14.6997 17.4995 15.6407 17.5 16.7997V22.3997H21.7L21.8408 22.3847C22.1596 22.3195 22.3997 22.0378 22.4 21.6997V12.4958L22.3863 12.355C22.3675 12.2633 22.3296 12.1763 22.2769 12.0993L22.1853 11.9913L14.4853 4.588Z" fill="#141413"/>
</svg>
